<svg xmlns="http://www.w3.org/2000/svg" xmlns:xlink="http://www.w3.org/1999/xlink" width="500" zoomAndPan="magnify" viewBox="0 0 375 374.999991" height="500" preserveAspectRatio="xMidYMid meet" version="1.0"><defs><g/><clipPath id="414d302fea"><path d="M 69 134 L 116 134 L 116 187.957031 L 69 187.957031 Z M 69 134 " clip-rule="nonzero"/></clipPath><clipPath id="1aa053a353"><path d="M 61.066406 40.207031 L 124.066406 40.207031 L 124.066406 183 L 61.066406 183 Z M 61.066406 40.207031 " clip-rule="nonzero"/></clipPath><clipPath id="0d19fd134e"><path d="M 69 111 L 124.066406 111 L 124.066406 183 L 69 183 Z M 69 111 " clip-rule="nonzero"/></clipPath></defs><path stroke-linecap="butt" transform="matrix(0.750235, 0, 0, 0.75, 31.573523, 37.204542)" fill="none" stroke-linejoin="miter" d="M 0.000927607 2.998111 L 398.886357 2.998111 " stroke="#000000" stroke-width="6" stroke-opacity="1" stroke-miterlimit="4"/><path stroke-linecap="butt" transform="matrix(0.750482, 0, 0, 0.75, 36.458667, 323.717732)" fill="none" stroke-linejoin="miter" d="M -0.00217905 0.501358 L 72.961359 0.501358 " stroke="#000000" stroke-width="1" stroke-opacity="1" stroke-miterlimit="4"/><path stroke-linecap="butt" transform="matrix(0.000000000000000046, -0.750533, 0.75, 0.000000000000000046, 31.569824, 301.467695)" fill="none" stroke-linejoin="miter" d="M -0.00140513 3.000651 L 351.75902 3.000651 " stroke="#000000" stroke-width="6" stroke-opacity="1" stroke-miterlimit="4"/><path stroke-linecap="butt" transform="matrix(0.000000000000000046, -0.750652, 0.75, 0.000000000000000046, 329.97347, 187.601779)" fill="none" stroke-linejoin="miter" d="M 0.000288257 0.498915 L 161.870078 0.498915 " stroke="#000000" stroke-width="1" stroke-opacity="1" stroke-miterlimit="4"/><g clip-path="url(#414d302fea)"><path fill="#ffcd69" d="M 109.730469 134.664062 C 112.703125 134.664062 115.144531 137.078125 115.144531 140.089844 C 115.144531 143.070312 112.734375 145.519531 109.730469 145.519531 C 106.726562 145.519531 104.316406 143.101562 104.316406 140.089844 C 104.347656 137.078125 106.757812 134.664062 109.730469 134.664062 Z M 69.984375 182.382812 C 69.984375 185.363281 72.394531 187.808594 75.398438 187.808594 C 78.371094 187.808594 80.8125 185.394531 80.8125 182.382812 C 80.8125 179.402344 78.402344 176.953125 75.398438 176.953125 C 72.394531 176.984375 69.984375 179.402344 69.984375 182.382812 Z M 69.984375 182.382812 " fill-opacity="1" fill-rule="nonzero"/></g><g clip-path="url(#1aa053a353)"><path fill="#121212" d="M 124.066406 126.976562 L 124.066406 140.59375 L 95.429688 140.59375 L 95.429688 126.976562 C 95.429688 120.480469 100.75 115.148438 107.226562 115.148438 L 107.320312 115.148438 L 107.320312 40.351562 L 111.484375 40.351562 L 111.484375 115.179688 L 112.265625 115.179688 C 118.746094 115.179688 124.066406 120.480469 124.066406 126.976562 Z M 77.902344 157.472656 L 77.246094 157.472656 L 77.246094 40.351562 L 73.082031 40.351562 L 73.082031 157.472656 L 72.863281 157.472656 C 66.386719 157.472656 61.066406 162.804688 61.066406 169.300781 L 61.066406 182.914062 L 89.703125 182.914062 L 89.703125 169.300781 C 89.703125 162.804688 84.382812 157.472656 77.902344 157.472656 Z M 77.902344 157.472656 " fill-opacity="1" fill-rule="nonzero"/></g><g clip-path="url(#0d19fd134e)"><path fill="#121212" d="M 124.066406 126.976562 L 124.066406 140.59375 L 119.933594 140.59375 L 119.933594 127.382812 C 119.933594 122.113281 116.992188 117.5625 112.832031 115.585938 L 104.347656 115.585938 L 104.347656 111.980469 L 115.144531 111.980469 L 115.144531 115.492188 C 120.246094 116.8125 124.066406 121.484375 124.066406 126.976562 Z M 80.78125 157.847656 L 80.78125 154.335938 L 69.984375 154.335938 L 69.984375 157.847656 L 78.308594 157.847656 C 82.566406 159.792969 85.570312 164.40625 85.570312 169.738281 L 85.570312 182.945312 L 89.703125 182.945312 L 89.703125 169.300781 C 89.703125 163.808594 85.882812 159.132812 80.78125 157.847656 Z M 80.78125 157.847656 " fill-opacity="1" fill-rule="nonzero"/></g><g fill="#000000" fill-opacity="1"><g transform="translate(186.138227, 228.121352)"><g><path d="M 3.0625 0 L 8.859375 0 L 8.859375 -8.785156 L 18.121094 -8.785156 L 18.121094 -13.890625 L 8.859375 -13.890625 L 8.859375 -20.269531 L 19.066406 -20.269531 L 19.066406 -25.519531 L 3.0625 -25.519531 Z M 3.0625 0 "/></g></g></g><g fill="#000000" fill-opacity="1"><g transform="translate(217.557256, 228.121352)"><g><path d="M 0.328125 0 L 6.527344 0 L 8.238281 -4.410156 L 18.375 -4.410156 L 20.089844 0 L 26.285156 0 L 16.152344 -25.519531 L 10.464844 -25.519531 Z M 9.734375 -8.96875 L 13.308594 -18.300781 L 16.917969 -8.96875 Z M 9.734375 -8.96875 "/></g></g></g><g fill="#000000" fill-opacity="1"><g transform="translate(254.915876, 228.121352)"><g><path d="M 3.0625 0 L 15.058594 0 C 20.234375 0 23.734375 -2.84375 23.734375 -7.144531 C 23.734375 -9.878906 22.3125 -12.066406 19.90625 -13.125 C 21.835938 -14.253906 22.96875 -16.261719 22.96875 -18.667969 C 22.96875 -22.859375 19.652344 -25.519531 14.472656 -25.519531 L 3.0625 -25.519531 Z M 8.785156 -4.59375 L 8.785156 -10.71875 L 14.183594 -10.71875 C 16.480469 -10.71875 17.792969 -9.589844 17.792969 -7.65625 C 17.792969 -5.722656 16.480469 -4.59375 14.183594 -4.59375 Z M 8.785156 -15.128906 L 8.785156 -20.925781 L 13.597656 -20.925781 C 15.824219 -20.925781 17.0625 -19.90625 17.0625 -18.046875 C 17.0625 -16.1875 15.824219 -15.128906 13.597656 -15.128906 Z M 8.785156 -15.128906 "/></g></g></g><g fill="#000000" fill-opacity="1"><g transform="translate(290.780487, 228.121352)"><g><path d="M 3.0625 0 L 8.859375 0 L 8.859375 -25.519531 L 3.0625 -25.519531 Z M 3.0625 0 "/></g></g></g><g fill="#000000" fill-opacity="1"><g transform="translate(313.454091, 228.121352)"><g><path d="M 15.167969 0.511719 C 23.148438 0.511719 28.800781 -4.957031 28.800781 -12.761719 C 28.800781 -20.5625 23.148438 -26.03125 15.167969 -26.03125 C 7.183594 -26.03125 1.566406 -20.5625 1.566406 -12.761719 C 1.566406 -4.957031 7.183594 0.511719 15.167969 0.511719 Z M 7.472656 -12.761719 C 7.472656 -17.355469 10.644531 -20.527344 15.167969 -20.527344 C 19.722656 -20.527344 22.859375 -17.355469 22.859375 -12.761719 C 22.859375 -8.167969 19.722656 -4.996094 15.167969 -4.996094 C 10.644531 -4.996094 7.472656 -8.167969 7.472656 -12.761719 Z M 7.472656 -12.761719 "/></g></g></g><g fill="#000000" fill-opacity="1"><g transform="translate(54.195681, 278.189112)"><g><path d="M 3.0625 0 L 8.859375 0 L 8.859375 -8.785156 L 18.121094 -8.785156 L 18.121094 -13.890625 L 8.859375 -13.890625 L 8.859375 -20.269531 L 19.066406 -20.269531 L 19.066406 -25.519531 L 3.0625 -25.519531 Z M 3.0625 0 "/></g></g></g><g fill="#000000" fill-opacity="1"><g transform="translate(85.61471, 278.189112)"><g><path d="M 0.328125 0 L 6.527344 0 L 8.238281 -4.410156 L 18.375 -4.410156 L 20.089844 0 L 26.285156 0 L 16.152344 -25.519531 L 10.464844 -25.519531 Z M 9.734375 -8.96875 L 13.308594 -18.300781 L 16.917969 -8.96875 Z M 9.734375 -8.96875 "/></g></g></g><g fill="#000000" fill-opacity="1"><g transform="translate(122.97333, 278.189112)"><g><path d="M 3.0625 0 L 8.859375 0 L 8.859375 -7.949219 L 12.6875 -7.949219 L 17.246094 0 L 23.953125 0 L 18.667969 -8.859375 C 21.726562 -10.207031 23.515625 -12.980469 23.515625 -16.734375 C 23.515625 -22.164062 19.796875 -25.519531 13.964844 -25.519531 L 3.0625 -25.519531 Z M 8.785156 -12.832031 L 8.785156 -20.5625 L 13.199219 -20.5625 C 16.042969 -20.5625 17.644531 -19.175781 17.644531 -16.699219 C 17.644531 -14.21875 16.042969 -12.832031 13.199219 -12.832031 Z M 8.785156 -12.832031 "/></g></g></g><g fill="#000000" fill-opacity="1"><g transform="translate(159.384523, 278.189112)"><g><path d="M 3.0625 0 L 8.859375 0 L 8.859375 -25.519531 L 3.0625 -25.519531 Z M 3.0625 0 "/></g></g></g><g fill="#000000" fill-opacity="1"><g transform="translate(182.058127, 278.189112)"><g><path d="M 3.0625 0 L 8.824219 0 L 8.824219 -15.640625 L 20.089844 0 L 25.007812 0 L 25.007812 -25.519531 L 19.25 -25.519531 L 19.25 -9.988281 L 7.984375 -25.519531 L 3.0625 -25.519531 Z M 3.0625 0 "/></g></g></g><g fill="#000000" fill-opacity="1"><g transform="translate(220.874308, 278.189112)"><g><path d="M 3.0625 0 L 20.234375 0 L 20.234375 -4.921875 L 8.824219 -4.921875 L 8.824219 -10.5 L 18.847656 -10.5 L 18.847656 -15.347656 L 8.824219 -15.347656 L 8.824219 -20.636719 L 19.832031 -20.636719 L 19.832031 -25.519531 L 3.0625 -25.519531 Z M 3.0625 0 "/></g></g></g><g fill="#000000" fill-opacity="1"><g transform="translate(253.714469, 278.189112)"><g><path d="M 3.0625 0 L 20.015625 0 L 20.015625 -5.433594 L 8.859375 -5.433594 L 8.859375 -25.519531 L 3.0625 -25.519531 Z M 3.0625 0 "/></g></g></g><g fill="#000000" fill-opacity="1"><g transform="translate(285.461443, 278.189112)"><g><path d="M 3.0625 0 L 20.015625 0 L 20.015625 -5.433594 L 8.859375 -5.433594 L 8.859375 -25.519531 L 3.0625 -25.519531 Z M 3.0625 0 "/></g></g></g><g fill="#000000" fill-opacity="1"><g transform="translate(317.208418, 278.189112)"><g><path d="M 0.328125 0 L 6.527344 0 L 8.238281 -4.410156 L 18.375 -4.410156 L 20.089844 0 L 26.285156 0 L 16.152344 -25.519531 L 10.464844 -25.519531 Z M 9.734375 -8.96875 L 13.308594 -18.300781 L 16.917969 -8.96875 Z M 9.734375 -8.96875 "/></g></g></g><g fill="#000000" fill-opacity="1"><g transform="translate(136.192628, 328.672146)"><g><path d="M 1.433594 0 L 2.671875 0 L 2.671875 -9.835938 L 1.433594 -9.835938 Z M 1.433594 0 "/></g></g></g><g fill="#000000" fill-opacity="1"><g transform="translate(143.472675, 328.672146)"><g><path d="M 1.433594 0 L 2.65625 0 L 2.65625 -7.703125 L 8.09375 0 L 9.246094 0 L 9.246094 -9.835938 L 8.039062 -9.835938 L 8.039062 -2.136719 L 2.601562 -9.835938 L 1.433594 -9.835938 Z M 1.433594 0 "/></g></g></g><g fill="#000000" fill-opacity="1"><g transform="translate(157.330082, 328.672146)"><g><path d="M 3.808594 0 L 5.046875 0 L 5.046875 -8.65625 L 8.363281 -8.65625 L 8.363281 -9.835938 L 0.476562 -9.835938 L 0.476562 -8.65625 L 3.808594 -8.65625 Z M 3.808594 0 "/></g></g></g><g fill="#000000" fill-opacity="1"><g transform="translate(169.360444, 328.672146)"><g><path d="M 1.433594 0 L 7.5625 0 L 7.5625 -1.152344 L 2.671875 -1.152344 L 2.671875 -4.441406 L 7.054688 -4.441406 L 7.054688 -5.578125 L 2.671875 -5.578125 L 2.671875 -8.683594 L 7.40625 -8.683594 L 7.40625 -9.835938 L 1.433594 -9.835938 Z M 1.433594 0 "/></g></g></g><g fill="#000000" fill-opacity="1"><g transform="translate(181.01134, 328.672146)"><g><path d="M 1.433594 0 L 2.671875 0 L 2.671875 -3.527344 L 4.835938 -3.527344 L 7.238281 0 L 8.726562 0 L 6.253906 -3.652344 C 7.6875 -4.003906 8.574219 -5.085938 8.574219 -6.675781 C 8.574219 -8.628906 7.222656 -9.835938 5.1875 -9.835938 L 1.433594 -9.835938 Z M 2.671875 -4.707031 L 2.671875 -8.65625 L 5.046875 -8.65625 C 6.480469 -8.65625 7.308594 -7.925781 7.308594 -6.675781 C 7.308594 -5.425781 6.480469 -4.707031 5.046875 -4.707031 Z M 2.671875 -4.707031 "/></g></g></g><g fill="#000000" fill-opacity="1"><g transform="translate(193.758457, 328.672146)"><g><path d="M 1.433594 0 L 2.671875 0 L 2.671875 -9.835938 L 1.433594 -9.835938 Z M 1.433594 0 "/></g></g></g><g fill="#000000" fill-opacity="1"><g transform="translate(201.038501, 328.672146)"><g><path d="M 5.902344 0.183594 C 8.894531 0.183594 11.003906 -1.925781 11.003906 -4.917969 C 11.003906 -7.914062 8.894531 -10.019531 5.902344 -10.019531 C 2.910156 -10.019531 0.816406 -7.914062 0.816406 -4.917969 C 0.816406 -1.925781 2.910156 0.183594 5.902344 0.183594 Z M 2.078125 -4.917969 C 2.078125 -7.210938 3.640625 -8.785156 5.902344 -8.785156 C 8.164062 -8.785156 9.726562 -7.210938 9.726562 -4.917969 C 9.726562 -2.628906 8.164062 -1.054688 5.902344 -1.054688 C 3.640625 -1.054688 2.078125 -2.628906 2.078125 -4.917969 Z M 2.078125 -4.917969 "/></g></g></g><g fill="#000000" fill-opacity="1"><g transform="translate(216.020241, 328.672146)"><g><path d="M 1.433594 0 L 2.671875 0 L 2.671875 -3.527344 L 4.835938 -3.527344 L 7.238281 0 L 8.726562 0 L 6.253906 -3.652344 C 7.6875 -4.003906 8.574219 -5.085938 8.574219 -6.675781 C 8.574219 -8.628906 7.222656 -9.835938 5.1875 -9.835938 L 1.433594 -9.835938 Z M 2.671875 -4.707031 L 2.671875 -8.65625 L 5.046875 -8.65625 C 6.480469 -8.65625 7.308594 -7.925781 7.308594 -6.675781 C 7.308594 -5.425781 6.480469 -4.707031 5.046875 -4.707031 Z M 2.671875 -4.707031 "/></g></g></g><g fill="#000000" fill-opacity="1"><g transform="translate(228.767358, 328.672146)"><g/></g></g><g fill="#000000" fill-opacity="1"><g transform="translate(235.429023, 328.672146)"><g><path d="M 1.433594 0 L 4.835938 0 C 7.855469 0 9.878906 -2.007812 9.878906 -4.917969 C 9.878906 -7.828125 7.855469 -9.835938 4.835938 -9.835938 L 1.433594 -9.835938 Z M 2.671875 -1.179688 L 2.671875 -8.65625 L 4.777344 -8.65625 C 7.070312 -8.65625 8.613281 -7.152344 8.613281 -4.917969 C 8.613281 -2.683594 7.082031 -1.179688 4.835938 -1.179688 Z M 2.671875 -1.179688 "/></g></g></g><g fill="#000000" fill-opacity="1"><g transform="translate(249.300474, 328.672146)"><g><path d="M 1.433594 0 L 7.5625 0 L 7.5625 -1.152344 L 2.671875 -1.152344 L 2.671875 -4.441406 L 7.054688 -4.441406 L 7.054688 -5.578125 L 2.671875 -5.578125 L 2.671875 -8.683594 L 7.40625 -8.683594 L 7.40625 -9.835938 L 1.433594 -9.835938 Z M 1.433594 0 "/></g></g></g><g fill="#000000" fill-opacity="1"><g transform="translate(260.951367, 328.672146)"><g><path d="M 4.707031 0.183594 C 6.859375 0.183594 8.25 -0.871094 8.25 -2.585938 C 8.25 -4.035156 7.28125 -4.90625 4.765625 -5.523438 C 2.851562 -5.988281 2.21875 -6.492188 2.21875 -7.308594 C 2.21875 -8.25 3.0625 -8.839844 4.46875 -8.839844 C 5.917969 -8.839844 6.816406 -8.109375 6.84375 -6.929688 L 8.066406 -6.929688 C 8.054688 -8.839844 6.675781 -10.019531 4.46875 -10.019531 C 2.320312 -10.019531 0.957031 -8.964844 0.957031 -7.308594 C 0.957031 -5.789062 2.039062 -4.945312 4.457031 -4.371094 C 6.226562 -3.949219 6.972656 -3.457031 6.972656 -2.542969 C 6.972656 -1.574219 6.097656 -0.996094 4.707031 -0.996094 C 3.175781 -0.996094 2.109375 -1.757812 2.078125 -3.023438 L 0.84375 -3.023438 C 0.855469 -1.097656 2.359375 0.183594 4.707031 0.183594 Z M 4.707031 0.183594 "/></g></g></g><g fill="#000000" fill-opacity="1"><g transform="translate(273.22064, 328.672146)"><g><path d="M 1.433594 0 L 2.671875 0 L 2.671875 -9.835938 L 1.433594 -9.835938 Z M 1.433594 0 "/></g></g></g><g fill="#000000" fill-opacity="1"><g transform="translate(280.500685, 328.672146)"><g><path d="M 5.820312 0.183594 C 8.839844 0.183594 10.878906 -2.109375 10.820312 -5.339844 L 5.480469 -5.339844 L 5.480469 -4.160156 L 9.488281 -4.160156 C 9.234375 -2.304688 7.828125 -1.054688 5.847656 -1.054688 C 3.640625 -1.054688 2.078125 -2.640625 2.078125 -4.917969 C 2.078125 -7.195312 3.625 -8.785156 5.832031 -8.785156 C 7.351562 -8.785156 8.558594 -8.039062 9.175781 -6.773438 L 10.527344 -6.773438 C 9.894531 -8.714844 8.039062 -10.019531 5.789062 -10.019531 C 2.910156 -10.019531 0.816406 -7.871094 0.816406 -4.917969 C 0.816406 -1.953125 2.921875 0.183594 5.820312 0.183594 Z M 5.820312 0.183594 "/></g></g></g><g fill="#000000" fill-opacity="1"><g transform="translate(295.271613, 328.672146)"><g><path d="M 1.433594 0 L 2.65625 0 L 2.65625 -7.703125 L 8.09375 0 L 9.246094 0 L 9.246094 -9.835938 L 8.039062 -9.835938 L 8.039062 -2.136719 L 2.601562 -9.835938 L 1.433594 -9.835938 Z M 1.433594 0 "/></g></g></g><g fill="#000000" fill-opacity="1"><g transform="translate(309.129026, 328.672146)"><g><path d="M 1.433594 0 L 7.5625 0 L 7.5625 -1.152344 L 2.671875 -1.152344 L 2.671875 -4.441406 L 7.054688 -4.441406 L 7.054688 -5.578125 L 2.671875 -5.578125 L 2.671875 -8.683594 L 7.40625 -8.683594 L 7.40625 -9.835938 L 1.433594 -9.835938 Z M 1.433594 0 "/></g></g></g><g fill="#000000" fill-opacity="1"><g transform="translate(320.779929, 328.672146)"><g><path d="M 1.433594 0 L 2.671875 0 L 2.671875 -3.527344 L 4.835938 -3.527344 L 7.238281 0 L 8.726562 0 L 6.253906 -3.652344 C 7.6875 -4.003906 8.574219 -5.085938 8.574219 -6.675781 C 8.574219 -8.628906 7.222656 -9.835938 5.1875 -9.835938 L 1.433594 -9.835938 Z M 2.671875 -4.707031 L 2.671875 -8.65625 L 5.046875 -8.65625 C 6.480469 -8.65625 7.308594 -7.925781 7.308594 -6.675781 C 7.308594 -5.425781 6.480469 -4.707031 5.046875 -4.707031 Z M 2.671875 -4.707031 "/></g></g></g></svg>